<?xml version="1.0" encoding="UTF-8"?>
<svg id="Layer_1" xmlns="http://www.w3.org/2000/svg" version="1.1" viewBox="0 0 743.7 328.1">
  <!-- Generator: Adobe Illustrator 29.5.1, SVG Export Plug-In . SVG Version: 2.1.0 Build 141)  -->
  <defs>
    <style>
      .st0 {
        fill: #c10230;
      }

      .st1 {
        fill: #231f20;
      }

      .st2 {
        fill: #fff;
      }

      .st3 {
        fill: #e0d0a6;
      }
    </style>
  </defs>
  <path class="st3" d="M110.7,327.1c-.6-.2-2.4-2-3.9-4.3l-.2-.3h-.4C38.6,306.6,1,203,9.5,119.9c1-9.6,2.6-18.6,4.8-27,2.2-8.6,5.2-16.6,8.7-23.8,3.9-8.1,8.6-15.1,14-21,11.2-12.3,25.1-18.9,40.1-19.1.3,0,1.3,0,1.4-.9,2.6-5.4,9.4-9.1,14.4-9.8h.7c0-.1.2-.8.2-.8.1-.6,3.4-13.2,17-13.2s16.9,13,17,13.2l.2.7h.7c5,.8,11.8,4.6,14.4,9.9,0,.9,1,1,1.4,1,15,.2,28.9,6.8,40.1,19.1,6.2,6.7,11.5,15.1,15.8,25l.9,2.1c5.4,13,9,28.1,10.8,44.8,8.5,83.1-29.1,186.7-96.6,202.5h-.4c0,0-.2.4-.2.4-1.5,2.3-3.3,4.2-3.9,4.3h0Z"/>
  <path class="st1" d="M212.8,119.8c-.7-6.9-1.7-13.7-3.2-20.5-1.4-6.2-3-12.4-5.2-18.4-2.2-6.3-5-12.5-8.3-18.3-3.1-5.5-6.8-10.6-11-15.3-11.3-12.4-25.3-19.2-40.8-19.5h-.3c-2.5-5.5-9.5-10-15.5-10.8,0,0-3.2-13.8-17.8-13.9-14.6,0-17.8,13.9-17.8,13.9-6,.8-13,5.3-15.5,10.8h-.3c-15.5.2-29.5,7.1-40.8,19.5-4.2,4.6-7.9,9.8-11,15.3-3.3,5.8-6,12-8.3,18.3-2.1,6-3.8,12.1-5.2,18.4-1.5,6.8-2.5,13.6-3.2,20.5C0,204,37.8,307.5,105.9,323.4c1,1.5,3.4,4.8,4.7,4.8s3.7-3.2,4.7-4.8c68.1-15.9,106-119.4,97.4-203.6h0ZM110.7,6.4c12,0,14.6,10.2,14.6,10.3-5.9.4-11.5,4-14.4,9.2,0,0-.1.4-.3.4s-.2-.3-.3-.4c-2.9-5.2-8.4-8.8-14.4-9.2,0-.1,2.6-10.3,14.6-10.3ZM103.7,22.3c2.9,1.8,5.1,4.6,5.9,7.8.2,1,.6,1.5,1,1.5s.8-.6,1-1.5c.8-3.3,3.1-6.1,5.9-7.8,8.7-5.4,18.5-1.8,22.5,5.9-2,.3-3.8.8-6.2,1.6-3.5,1.2-6.4,2.7-8.9,4.9-5.5,5-10.4,12.8-11.3,22.7-2.5,27.2,28.8,23,30.3,22.8,4,0,7.1-6.4,7.1-14.8s-3.1-14.8-7.1-14.8-6.6,1.9-7,9.5c-.3,5.3,2.3,12.4,5.7,12.8,1.7.2,3.3-2.9,3.8-6,.4-2.7.2-7-2.2-7.6-.8-.2-1.5.3-1.7,1-.2.7,1.5,1.9,1.4,5-.1,4.7-4.8,2.3-4.1-5.1.6-6.6,3.9-6.1,4.1-6.1,1.9,0,4.7,3.9,4.7,11.2s-3.1,13.5-9.1,9.9c-5-3.7-7-12.2-5.6-18.8.6-3,3.2-11.2,11.6-11.2,12.1,0,23.5,6.4,32.5,18.2-1,3.2-7.2,15.3-27.1,26.9-.4.2-1,.6-1.1.6-6.1-2.5-11.8-4-18.4-3.6-5.9.3-11.6,1.4-17.3,2.7-1.1.3-2.3.6-3.4.6h0c-1.1,0-2.3-.3-3.4-.6-5.7-1.3-11.4-2.4-17.3-2.7-6.6-.4-12.3,1.2-18.4,3.6,0,0-.7-.4-1.1-.6-19.9-11.6-26.1-23.7-27.1-26.9,9-11.9,20.3-18.2,32.5-18.2s11,8.2,11.6,11.2c1.4,6.6-.6,15.1-5.6,18.8-6,3.7-9.1-3.4-9.1-9.9s2.8-11.2,4.7-11.2,3.5-.4,4.1,6.1c.6,7.4-4.1,9.7-4.1,5.1,0-3.1,1.6-4.3,1.4-5-.2-.8-1-1.2-1.7-1-2.4.6-2.6,4.9-2.2,7.6.5,3.1,2.1,6.2,3.8,6,3.4-.4,5.9-7.5,5.7-12.8-.4-7.5-4.6-9.5-7-9.5-3.9,0-7.1,6.4-7.1,14.8s3.1,14.8,7.1,14.8c1.6.1,32.8,4.4,30.3-22.8-.9-9.9-5.8-17.7-11.3-22.7-2.5-2.2-5.4-3.7-8.9-4.9-2.4-.7-4.2-1.2-6.2-1.6,3.9-7.7,13.8-11.3,22.5-5.9h0ZM44.7,136.5c-.8,5.2-1.1,9.6-1.2,12.3-.4,9.8,0,19.7,1.4,29.5,1.3,9.3,3.4,18.4,6.2,27.3,3.9,12.1,9.1,23.7,15.4,34.7-6.4,5.8-15.9,8.1-19.1,8.7-17.2-34.3-26-78.6-24.1-118.5,4.1,2,11.6,5.1,21.4,6h0ZM23.4,128.3c1.6-27.2,8.5-48.6,18.6-62.8,1.8,4.6,9.6,16.2,27.5,26.7-15.3,9.2-22.2,28.2-24.5,42.3-10.1-.9-17.9-4.3-21.6-6.2h0ZM67.5,242.1c11.4,19.7,22.8,31.5,31.5,37.7-3.1,8-10.6,14.2-13.2,16.2-14.9-10-27.6-26-37.5-45.2,3.8-.8,12.8-3.1,19.2-8.8h0ZM100.7,281c4.6,3.4,9.3,5.3,9.9,5.5.6-.2,5.3-2.1,9.9-5.5,3.3,7.7,10.1,13.7,13.2,16.2-4.3,2.7-8.7,5-13.3,6.6,0-.2,0-.3,0-.5-.9-4.9-7.4-5.9-9.7-5.9s-8.8,1-9.7,5.9c0,.2,0,.3,0,.5-4.6-1.7-9.1-3.9-13.3-6.6,3.1-2.4,9.9-8.4,13.2-16.2h0ZM122.3,279.8c8.7-6.2,20-18,31.5-37.7,6.4,5.7,15.4,8,19.2,8.8-9.9,19.2-22.6,35.1-37.5,45.2-2.6-2-10-8.3-13.2-16.2ZM154.8,240.3c6.2-11,11.5-22.6,15.4-34.7,2.8-8.9,4.9-18,6.2-27.3,1.4-9.8,1.9-19.7,1.4-29.5-.1-2.7-.4-7.1-1.2-12.3,9.8-.9,17.4-4,21.4-6,2,39.9-6.8,84.2-24.1,118.5-3.2-.6-12.8-2.9-19.1-8.7h0ZM176.3,134.5c-2.3-14.1-9.3-32.8-24.5-42.3,18-10.5,25.8-22.1,27.5-26.7,10,14.2,16.9,35.6,18.6,62.8-3.7,1.9-11.5,5.3-21.6,6.2ZM99.6,317.4c-7.7-2.5-15.1-6.3-21.9-10.9-4.3-2.9-8.3-6.2-12.1-9.8-3.1-2.9-6-6-8.8-9.2-1.9-2.2-3.7-4.5-5.4-6.8-8.4-11-15.2-23.4-20.8-36.1-5.3-12.3-9.6-25-12.8-38-3.3-13.3-5.5-26.8-6.7-40.4-1.1-13.4-1.4-27-.2-40.4.6-7.2,1.5-14.4,2.8-21.5,1.3-7.1,3-14.1,5.3-20.9,2.1-6.2,4.7-12.3,7.8-18.1,3.2-5.9,7.1-11.6,11.7-16.5,4.3-4.6,9.2-8.5,14.8-11.6,2.3-1.3,4.7-2.4,7.2-3.2,1.3-.5,2.5-.9,3.8-1.2,1.2-.3,2.6-.8,3.8-1,3.1-.6,6.3-.8,9.5-.8s8.9.4,14.5,3.9c6.1,4.4,11.5,11.5,12.4,22.5,1.5,16.8-15.7,19.5-19,19.4-.5,0-.8-.5.9-2.2,3.9-5.1,5.2-12.8,3.9-19-1.6-7.7-7.1-13.8-15-13.7-11.8,0-22.4,5.9-30.2,14.5-7.6,8.3-12.9,18.7-16.6,29.3-4.8,13.6-7.2,28-8.2,42.4-.9,13.2-.5,26.5.9,39.6,1.4,13.3,3.8,26.5,7.3,39.5,3.4,12.6,7.7,24.9,13.1,36.7,5.5,11.9,12.2,23.4,20.4,33.6,8.3,10.3,18.5,19.5,30.3,25.6,2.7,1.4,5.4,2.6,8.2,3.6-.2,4.4,1,8.3,2.5,11.5-1.9-.4-1.9-.5-3.5-1h0ZM111.8,323.1c0,0-.6.7-1.2.8-.6,0-1.1-.7-1.2-.8-2.9-3.7-7.3-10.8-5.6-19.2.5-2.4,4.5-3.5,6.8-3.5,2.3,0,6.3,1.1,6.8,3.5,1.6,8.5-2.7,15.6-5.6,19.2h0ZM210.1,166.4c-1.2,13.6-3.4,27.1-6.7,40.4-3.2,13-7.4,25.7-12.8,38-5.5,12.7-12.4,25-20.8,36.1-1.7,2.3-3.5,4.5-5.4,6.8-2.8,3.2-5.7,6.3-8.8,9.2-3.8,3.5-7.8,6.8-12.1,9.8-6.8,4.6-14.1,8.4-21.9,10.9-1.6.5-1.6.6-3.5,1,1.5-3.2,2.6-7.2,2.5-11.5,2.8-1,5.6-2.2,8.2-3.6,11.8-6,22-15.3,30.3-25.6,8.2-10.2,14.9-21.7,20.4-33.6,5.5-11.8,9.8-24.1,13.1-36.7,3.5-12.9,5.9-26.1,7.3-39.5,1.4-13.1,1.7-26.4.9-39.6-1-14.4-3.4-28.7-8.2-42.4-3.7-10.6-9-21-16.6-29.3-7.9-8.6-18.4-14.5-30.2-14.5-7.9,0-13.3,6-15,13.7-1.3,6.2,0,14,3.9,19,1.7,1.7,1.4,2.2.9,2.2-3.4,0-20.5-2.6-19-19.4.9-11,6.3-18.2,12.4-22.5,5.5-3.5,11.9-3.9,14.5-3.9s6.4.2,9.5.8c1.3.2,2.7.6,3.8,1,1.3.4,2.6.8,3.8,1.2,2.5.9,4.9,2,7.2,3.2,5.5,3,10.4,7,14.8,11.6,4.7,4.9,8.5,10.6,11.7,16.5,3.1,5.8,5.7,11.9,7.8,18.1,2.3,6.8,4,13.8,5.3,20.9,1.3,7.1,2.2,14.3,2.8,21.5,1.1,13.4.9,27-.2,40.4h0Z"/>
  <path class="st0" d="M174.1,149.4c-.4-10-3.4-40.6-24.1-53.8-4.5-2.9-10.4-4.1-16.3-4.5-10.2-.7-17.8,3.2-22.9,3.4h-.2c-5.1-.1-12.7-4-22.9-3.4-5.9.4-11.8,1.6-16.3,4.5-20.8,13.3-23.7,43.8-24.1,53.8-1.5,35.4,9.7,63.1,13.2,70.7,14.4,31.7,31.8,54.1,48.9,61.7l1.4.6,1.4-.6c17.2-7.6,34.5-30,48.9-61.7,3.5-7.6,14.7-35.3,13.2-70.7h0Z"/>
  <path class="st2" d="M141.5,125.3v6.9l1.4-.2s.3,0,.6,0c.8,0,2.2.1,3,1,.8.8,1.1,2.3.8,4.1,0,0-13.9,60.3-16.6,71.8-3-14.5-19.6-93.7-19.6-93.7v-.3h-3.4v.4c0,0-12,77.1-14.4,92.6-3.1-13.4-16.5-70.5-16.5-70.5,0-.4,0-.7,0-1,0-1.6.4-2.8,1.1-3.5,1-1,2.6-.8,2.7-.8l1.4.2v-6.7h-23.2v6.5l1,.2c.5.1,3.1.7,3.5,3.1,0,0,27.2,116.7,28.3,121.7v.3h4.2v-.3c.2-.8,11.2-73.2,13.3-86.8,2.6,13.5,16.7,86,16.9,86.8v.3h3.7l27-122c.6-2.5,2.9-2.8,3.8-2.8s.2,0,.3,0h1.3c0,.1,0-6.9,0-6.9h-20.8Z"/>
  <path class="st0" d="M405,164c0,12.2-2,23.4-5.9,33.4s-9.5,18.7-16.6,25.8c-7.1,7.2-15.7,12.8-25.7,16.7-10,4-21,5.9-33.2,5.9h-61.6V82.1h61.6c12.2,0,23.2,2,33.2,5.9,10,4,18.5,9.5,25.7,16.7,7.1,7.2,12.7,15.8,16.6,25.9s5.9,21.2,5.9,33.4h0ZM380.1,164c0-9.7-1.3-18.5-4-26.2-2.7-7.7-6.5-14.3-11.4-19.6-4.9-5.4-10.8-9.5-17.8-12.3-7-2.8-14.7-4.2-23.3-4.2h-37.2v124.6h37.2c8.6,0,16.4-1.4,23.3-4.2s12.9-6.9,17.8-12.3c4.9-5.4,8.7-11.9,11.4-19.6,2.7-7.7,4-16.4,4-26.2Z"/>
  <path class="st0" d="M478.8,128.2c8.5,0,16.2,1.4,23.1,4.2,6.9,2.8,12.7,6.8,17.6,12,4.8,5.2,8.5,11.5,11.1,18.8,2.6,7.3,3.9,15.6,3.9,24.7s-1.3,17.4-3.9,24.8c-2.6,7.4-6.3,13.7-11.1,18.8-4.8,5.2-10.7,9.2-17.6,11.9-6.9,2.8-14.6,4.2-23.1,4.2s-16.3-1.4-23.2-4.2c-6.9-2.8-12.8-6.8-17.6-11.9s-8.6-11.5-11.2-18.8-3.9-15.6-3.9-24.8,1.3-17.4,3.9-24.7c2.6-7.3,6.4-13.6,11.2-18.8s10.7-9.2,17.6-12c6.9-2.8,14.6-4.2,23.2-4.2h0ZM478.8,230.2c11,0,19.1-3.7,24.5-11.1s8.1-17.8,8.1-31.2-2.7-23.8-8.1-31.2c-5.4-7.4-13.6-11.1-24.5-11.1s-19.4,3.7-24.8,11.1c-5.4,7.4-8.2,17.8-8.2,31.2s2.7,23.8,8.2,31.2,13.7,11.1,24.8,11.1Z"/>
  <path class="st0" d="M584.7,245.9h-24.4V82.1h24.4v163.9Z"/>
  <path class="st0" d="M736.8,102.4h-52v143.5h-24.2V102.4h-52.3v-20.3h128.5v20.3h0Z"/>
</svg>