<?xml version="1.0" encoding="UTF-8" standalone="no"?><!DOCTYPE svg PUBLIC "-//W3C//DTD SVG 1.1//EN" "http://www.w3.org/Graphics/SVG/1.1/DTD/svg11.dtd"><svg width="100%" height="100%" viewBox="0 0 540 540" version="1.1" xmlns="http://www.w3.org/2000/svg" xmlns:xlink="http://www.w3.org/1999/xlink" xml:space="preserve" xmlns:serif="http://www.serif.com/" style="fill-rule:evenodd;clip-rule:evenodd;stroke-linejoin:round;stroke-miterlimit:2;"><path d="M116.713,178.571c0,29.587 -23.984,53.572 -53.571,53.572c-29.587,-0 -53.572,-23.985 -53.572,-53.572c0,-29.587 23.985,-53.571 53.572,-53.571c29.587,0 53.571,23.984 53.571,53.571Z" style="fill:#ca3b33;fill-rule:nonzero;"/><path d="M178.571,71.429c0,29.587 -23.984,53.571 -53.571,53.571c-29.587,0 -53.571,-23.984 -53.571,-53.571c-0,-29.587 23.984,-53.572 53.571,-53.572c29.587,0 53.571,23.985 53.571,53.572Z" style="fill:#389725;fill-rule:nonzero;"/><path d="M240.43,178.571c-0,29.587 -23.985,53.572 -53.572,53.572c-29.587,-0 -53.571,-23.985 -53.571,-53.572c-0,-29.587 23.984,-53.571 53.571,-53.571c29.587,0 53.572,23.984 53.572,53.571Z" style="fill:#9457b1;fill-rule:nonzero;"/><clipPath id="_clip1"><rect x="290" y="160.987" width="250" height="303.75"/></clipPath><g clip-path="url(#_clip1)"><g><clipPath id="_clip2"><rect id="path1948" x="290" y="160.987" width="185.077" height="186.879"/></clipPath><g clip-path="url(#_clip2)"><path d="M413.511,160.989c-10.308,0.048 -20.153,0.927 -28.815,2.46c-25.517,4.508 -30.15,13.944 -30.15,31.345l-0,22.982l60.301,-0l-0,7.661l-82.931,-0c-17.526,-0 -32.871,10.533 -37.671,30.572c-5.537,22.968 -5.782,37.301 0,61.284c4.286,17.853 14.523,30.573 32.048,30.573l20.733,-0l-0,-27.55c-0,-19.904 17.221,-37.46 37.67,-37.46l60.231,-0c16.766,-0 30.15,-13.805 30.15,-30.643l0,-57.419c0,-16.342 -13.786,-28.618 -30.15,-31.345c-10.359,-1.724 -21.107,-2.508 -31.416,-2.46Zm-32.61,18.484c6.229,-0 11.315,5.17 11.315,11.526c0,6.334 -5.086,11.456 -11.315,11.456c-6.251,-0 -11.315,-5.122 -11.315,-11.456c-0,-6.356 5.064,-11.526 11.315,-11.526Z" style="fill:url(#_Linear3);fill-rule:nonzero;"/></g><path id="path1950" d="M482.597,225.437l0,26.776c0,20.76 -17.6,38.233 -37.67,38.233l-60.231,0c-16.498,0 -30.15,14.12 -30.15,30.643l-0,57.419c-0,16.342 14.21,25.954 30.15,30.642c19.088,5.613 37.392,6.627 60.231,0c15.181,-4.395 30.15,-13.241 30.15,-30.642l0,-22.982l-60.23,0l-0,-7.66l90.381,-0c17.525,-0 24.055,-12.225 30.15,-30.573c6.296,-18.889 6.028,-37.053 0,-61.284c-4.331,-17.447 -12.603,-30.572 -30.15,-30.572l-22.631,-0Zm-33.875,145.41c6.251,0 11.315,5.122 11.315,11.456c0,6.357 -5.064,11.526 -11.315,11.526c-6.229,0 -11.315,-5.169 -11.315,-11.526c-0,-6.334 5.086,-11.456 11.315,-11.456Z" style="fill:url(#_Linear4);fill-rule:nonzero;"/><ellipse id="path1894" cx="415.531" cy="448.184" rx="80.808" ry="15.669" style="fill:url(#_Radial5);"/></g></g><path d="M124.811,514.08c-68.758,0 -124.498,-37.33 -124.498,-83.379c-0,-46.05 55.74,-83.381 124.498,-83.381c68.759,0 124.498,37.331 124.498,83.381c0,46.049 -55.739,83.379 -124.498,83.379Zm19.057,-134.161c-52.263,0 -94.63,25.521 -94.63,57.002c0,31.482 42.367,57.002 94.63,57.002c52.262,0 90.831,-17.448 90.831,-57.002c-0,-39.542 -38.569,-57.002 -90.831,-57.002Z" style="fill:url(#_Linear6);"/><path d="M189.917,476.464c0,0 7.535,2.274 11.913,4.489c1.519,0.769 4.147,2.303 6.043,4.316c1.857,1.973 2.762,3.971 2.762,3.971l29.696,50.069l-47.997,0.022l-22.444,-42.149c-0,0 -4.596,-7.896 -7.425,-10.186c-2.359,-1.91 -3.365,-2.59 -5.697,-2.59l-11.404,0l0.009,54.894l-42.472,0.018l-0,-140.223l85.29,-0c-0,-0 38.846,0.7 38.846,37.659c0,36.959 -37.12,39.71 -37.12,39.71Zm-18.474,-46.953l-25.712,-0.017l-0.013,23.844l25.725,-0.009c0,0 11.913,-0.037 11.913,-12.128c0,-12.335 -11.913,-11.69 -11.913,-11.69Z" style="fill:#1f65b7;"/><defs><linearGradient id="_Linear3" x1="0" y1="0" x2="1" y2="0" gradientUnits="userSpaceOnUse" gradientTransform="matrix(137.921,119.809,-119.809,137.921,290,160.987)"><stop offset="0" style="stop-color:#5a9fd4;stop-opacity:1"/><stop offset="1" style="stop-color:#306998;stop-opacity:1"/></linearGradient><linearGradient id="_Linear4" x1="0" y1="0" x2="1" y2="0" gradientUnits="userSpaceOnUse" gradientTransform="matrix(-49.2517,-70.3554,70.3554,-49.2517,447.273,380.371)"><stop offset="0" style="stop-color:#ffd43b;stop-opacity:1"/><stop offset="1" style="stop-color:#ffe873;stop-opacity:1"/></linearGradient><radialGradient id="_Radial5" cx="0" cy="0" r="1" gradientUnits="userSpaceOnUse" gradientTransform="matrix(1.1422e-06,-15.6694,68.8735,2.47601e-05,415.531,448.184)"><stop offset="0" style="stop-color:#b8b8b8;stop-opacity:0.22"/><stop offset="1" style="stop-color:#7f7f7f;stop-opacity:0"/></radialGradient><linearGradient id="_Linear6" x1="0" y1="0" x2="1" y2="0" gradientUnits="userSpaceOnUse" gradientTransform="matrix(248.997,166.76,-166.76,248.997,0.312845,347.32)"><stop offset="0" style="stop-color:#cbced0;stop-opacity:1"/><stop offset="1" style="stop-color:#84838b;stop-opacity:1"/></linearGradient></defs></svg>